<svg width="20" height="23" viewBox="0 0 20 23" fill="none" xmlns="http://www.w3.org/2000/svg">
<path d="M18.7281 9.80078L17.5 9.37109V4.46875C17.5 4.05435 17.342 3.65692 17.0607 3.3639C16.7794 3.07087 16.3978 2.90625 16 2.90625H10.75V1.34375C10.75 1.13655 10.671 0.937836 10.5303 0.791323C10.3897 0.64481 10.1989 0.5625 10 0.5625C9.80109 0.5625 9.61033 0.64481 9.46967 0.791323C9.32902 0.937836 9.25 1.13655 9.25 1.34375V2.90625H4C3.60218 2.90625 3.22065 3.07087 2.93934 3.3639C2.65804 3.65692 2.5 4.05435 2.5 4.46875V9.37109L1.27188 9.80078C0.973597 9.90527 0.714418 10.1048 0.531027 10.3712C0.347637 10.6376 0.249324 10.9573 0.250004 11.2852V14.625C0.250099 14.6976 0.259558 14.7699 0.278128 14.8398C1.75 20.2109 8.35 22.0664 9.6625 22.3789C9.88473 22.431 10.1153 22.431 10.3375 22.3789C11.65 22.0664 18.25 20.2109 19.7219 14.8398C19.7404 14.7699 19.7499 14.6976 19.75 14.625V11.2852C19.7507 10.9573 19.6524 10.6376 19.469 10.3712C19.2856 10.1048 19.0264 9.90527 18.7281 9.80078ZM10.75 15.4062C10.75 15.6135 10.671 15.8122 10.5303 15.9587C10.3897 16.1052 10.1989 16.1875 10 16.1875C9.80109 16.1875 9.61033 16.1052 9.46967 15.9587C9.32902 15.8122 9.25 15.6135 9.25 15.4062V9.97656C9.25 9.76936 9.32902 9.57065 9.46967 9.42414C9.61033 9.27762 9.80109 9.19531 10 9.19531C10.1989 9.19531 10.3897 9.27762 10.5303 9.42414C10.671 9.57065 10.75 9.76936 10.75 9.97656V15.4062ZM16 8.85352L10.4781 6.93945C10.1677 6.8322 9.83231 6.8322 9.52188 6.93945L4 8.85352V4.46875H16V8.85352Z" fill="#FFFFFF"/>
</svg>
