<svg xmlns="http://www.w3.org/2000/svg" width="18" height="18" viewBox="0 0 18 18" fill="none">
  <path d="M9 8.25C9.62132 8.25 10.125 7.74632 10.125 7.125C10.125 6.50368 9.62132 6 9 6C8.37868 6 7.875 6.50368 7.875 7.125C7.875 7.74632 8.37868 8.25 9 8.25Z" fill="#FFB703"/>
  <path d="M9 1.5C7.41904 1.49992 5.90194 2.12382 4.77843 3.23609C3.65492 4.34837 3.01581 5.85912 3 7.44C3 11.55 8.2875 16.125 8.5125 16.32C8.64835 16.4362 8.82124 16.5 9 16.5C9.17876 16.5 9.35165 16.4362 9.4875 16.32C9.75 16.125 15 11.55 15 7.44C14.9842 5.85912 14.3451 4.34837 13.2216 3.23609C12.0981 2.12382 10.581 1.49992 9 1.5ZM9 9.75C8.48082 9.75 7.97331 9.59605 7.54163 9.30761C7.10995 9.01917 6.7735 8.6092 6.57482 8.12954C6.37614 7.64989 6.32415 7.12209 6.42544 6.61289C6.52672 6.10369 6.77673 5.63596 7.14384 5.26885C7.51096 4.90173 7.97869 4.65173 8.48789 4.55044C8.99709 4.44915 9.52489 4.50114 10.0045 4.69982C10.4842 4.8985 10.8942 5.23495 11.1826 5.66663C11.471 6.09831 11.625 6.60582 11.625 7.125C11.625 7.82119 11.3484 8.48887 10.8562 8.98116C10.3639 9.47344 9.69619 9.75 9 9.75V9.75Z" fill="#FFB703"/>
</svg>