<svg width="112" height="25" viewBox="0 0 112 25" fill="none" xmlns="http://www.w3.org/2000/svg">
<path d="M20.7281 10.8008L19.5 10.3711V5.46875C19.5 5.05435 19.342 4.65692 19.0607 4.3639C18.7794 4.07087 18.3978 3.90625 18 3.90625H12.75V2.34375C12.75 2.13655 12.671 1.93784 12.5303 1.79132C12.3897 1.64481 12.1989 1.5625 12 1.5625C11.8011 1.5625 11.6103 1.64481 11.4697 1.79132C11.329 1.93784 11.25 2.13655 11.25 2.34375V3.90625H6C5.60218 3.90625 5.22065 4.07087 4.93934 4.3639C4.65804 4.65692 4.5 5.05435 4.5 5.46875V10.3711L3.27188 10.8008C2.9736 10.9053 2.71442 11.1048 2.53103 11.3712C2.34764 11.6376 2.24932 11.9573 2.25 12.2852V15.625C2.2501 15.6976 2.25956 15.7699 2.27813 15.8398C3.75 21.2109 10.35 23.0664 11.6625 23.3789C11.8847 23.431 12.1153 23.431 12.3375 23.3789C13.65 23.0664 20.25 21.2109 21.7219 15.8398C21.7404 15.7699 21.7499 15.6976 21.75 15.625V12.2852C21.7507 11.9573 21.6524 11.6376 21.469 11.3712C21.2856 11.1048 21.0264 10.9053 20.7281 10.8008ZM12.75 16.4062C12.75 16.6135 12.671 16.8122 12.5303 16.9587C12.3897 17.1052 12.1989 17.1875 12 17.1875C11.8011 17.1875 11.6103 17.1052 11.4697 16.9587C11.329 16.8122 11.25 16.6135 11.25 16.4062V10.9766C11.25 10.7694 11.329 10.5706 11.4697 10.4241C11.6103 10.2776 11.8011 10.1953 12 10.1953C12.1989 10.1953 12.3897 10.2776 12.5303 10.4241C12.671 10.5706 12.75 10.7694 12.75 10.9766V16.4062ZM18 9.85352L12.4781 7.93945C12.1677 7.8322 11.8323 7.8322 11.5219 7.93945L6 9.85352V5.46875H18V9.85352Z" fill="#219EBC"/>
<path d="M34.792 17V8.06H38.572C39.188 8.06 39.716 8.164 40.156 8.372C40.596 8.58 40.932 8.88 41.164 9.272C41.396 9.656 41.512 10.124 41.512 10.676C41.512 11.068 41.404 11.444 41.188 11.804C40.972 12.156 40.616 12.452 40.12 12.692V11.78C40.592 11.964 40.956 12.184 41.212 12.44C41.468 12.696 41.644 12.976 41.74 13.28C41.836 13.576 41.884 13.888 41.884 14.216C41.884 15.096 41.592 15.78 41.008 16.268C40.424 16.756 39.612 17 38.572 17H34.792ZM36.652 15.38H38.788C39.164 15.38 39.464 15.272 39.688 15.056C39.912 14.84 40.024 14.56 40.024 14.216C40.024 13.864 39.912 13.58 39.688 13.364C39.464 13.148 39.164 13.04 38.788 13.04H36.652V15.38ZM36.652 11.42H38.704C38.992 11.42 39.22 11.34 39.388 11.18C39.564 11.012 39.652 10.792 39.652 10.52C39.652 10.248 39.564 10.032 39.388 9.872C39.22 9.704 38.992 9.62 38.704 9.62H36.652V11.42ZM46.1972 17.144C45.5492 17.144 44.9572 16.996 44.4212 16.7C43.8932 16.404 43.4692 16 43.1492 15.488C42.8372 14.968 42.6812 14.38 42.6812 13.724C42.6812 13.06 42.8372 12.472 43.1492 11.96C43.4692 11.448 43.8932 11.044 44.4212 10.748C44.9572 10.452 45.5492 10.304 46.1972 10.304C46.8452 10.304 47.4332 10.452 47.9612 10.748C48.4892 11.044 48.9092 11.448 49.2212 11.96C49.5412 12.472 49.7012 13.06 49.7012 13.724C49.7012 14.38 49.5412 14.968 49.2212 15.488C48.9092 16 48.4892 16.404 47.9612 16.7C47.4332 16.996 46.8452 17.144 46.1972 17.144ZM46.1972 15.524C46.5252 15.524 46.8092 15.448 47.0492 15.296C47.2972 15.144 47.4892 14.932 47.6252 14.66C47.7692 14.388 47.8412 14.076 47.8412 13.724C47.8412 13.372 47.7692 13.064 47.6252 12.8C47.4892 12.528 47.2972 12.316 47.0492 12.164C46.8092 12.004 46.5252 11.924 46.1972 11.924C45.8692 11.924 45.5812 12.004 45.3332 12.164C45.0852 12.316 44.8892 12.528 44.7452 12.8C44.6092 13.064 44.5412 13.372 44.5412 13.724C44.5412 14.076 44.6092 14.388 44.7452 14.66C44.8892 14.932 45.0852 15.144 45.3332 15.296C45.5812 15.448 45.8692 15.524 46.1972 15.524ZM52.7896 17.144C52.3176 17.144 51.9096 17.068 51.5656 16.916C51.2216 16.764 50.9576 16.548 50.7736 16.268C50.5896 15.98 50.4976 15.64 50.4976 15.248C50.4976 14.88 50.5816 14.556 50.7496 14.276C50.9176 13.988 51.1736 13.748 51.5176 13.556C51.8696 13.364 52.3056 13.228 52.8256 13.148L54.8296 12.824V14.144L53.1496 14.444C52.8936 14.492 52.6976 14.576 52.5616 14.696C52.4256 14.808 52.3576 14.972 52.3576 15.188C52.3576 15.388 52.4336 15.544 52.5856 15.656C52.7376 15.768 52.9256 15.824 53.1496 15.824C53.4456 15.824 53.7056 15.76 53.9296 15.632C54.1536 15.504 54.3256 15.332 54.4456 15.116C54.5736 14.892 54.6376 14.648 54.6376 14.384V12.68C54.6376 12.432 54.5376 12.224 54.3376 12.056C54.1456 11.888 53.8816 11.804 53.5456 11.804C53.2256 11.804 52.9416 11.892 52.6936 12.068C52.4536 12.244 52.2776 12.476 52.1656 12.764L50.7256 12.08C50.8536 11.712 51.0576 11.396 51.3376 11.132C51.6176 10.868 51.9536 10.664 52.3456 10.52C52.7376 10.376 53.1656 10.304 53.6296 10.304C54.1816 10.304 54.6696 10.404 55.0936 10.604C55.5176 10.804 55.8456 11.084 56.0776 11.444C56.3176 11.796 56.4376 12.208 56.4376 12.68V17H54.7576V15.944L55.1656 15.872C54.9736 16.16 54.7616 16.4 54.5296 16.592C54.2976 16.776 54.0376 16.912 53.7496 17C53.4616 17.096 53.1416 17.144 52.7896 17.144ZM60.7965 17.072C60.0045 17.072 59.3885 16.86 58.9485 16.436C58.5165 16.004 58.3005 15.404 58.3005 14.636V12.008H57.1965V10.448H57.2565C57.5925 10.448 57.8485 10.364 58.0245 10.196C58.2085 10.028 58.3005 9.776 58.3005 9.44V8.96H60.1005V10.448H61.6365V12.008H60.1005V14.516C60.1005 14.74 60.1405 14.928 60.2205 15.08C60.3005 15.224 60.4245 15.332 60.5925 15.404C60.7605 15.476 60.9685 15.512 61.2165 15.512C61.2725 15.512 61.3365 15.508 61.4085 15.5C61.4805 15.492 61.5565 15.484 61.6365 15.476V17C61.5165 17.016 61.3805 17.032 61.2285 17.048C61.0765 17.064 60.9325 17.072 60.7965 17.072ZM66.3633 17.144C65.9153 17.144 65.4993 17.064 65.1152 16.904C64.7393 16.736 64.4353 16.492 64.2033 16.172L64.3713 15.8V17H62.6913V7.916H64.4913V11.696L64.2153 11.336C64.4313 11.008 64.7233 10.756 65.0913 10.58C65.4673 10.396 65.8953 10.304 66.3753 10.304C66.9993 10.304 67.5633 10.456 68.0673 10.76C68.5713 11.064 68.9713 11.476 69.2673 11.996C69.5633 12.508 69.7113 13.084 69.7113 13.724C69.7113 14.356 69.5633 14.932 69.2673 15.452C68.9793 15.972 68.5833 16.384 68.0793 16.688C67.5753 16.992 67.0033 17.144 66.3633 17.144ZM66.1473 15.524C66.4833 15.524 66.7793 15.448 67.0353 15.296C67.2913 15.144 67.4913 14.932 67.6353 14.66C67.7793 14.388 67.8513 14.076 67.8513 13.724C67.8513 13.372 67.7793 13.064 67.6353 12.8C67.4913 12.528 67.2913 12.316 67.0353 12.164C66.7793 12.004 66.4833 11.924 66.1473 11.924C65.8273 11.924 65.5393 12 65.2833 12.152C65.0353 12.304 64.8393 12.516 64.6953 12.788C64.5593 13.06 64.4913 13.372 64.4913 13.724C64.4913 14.076 64.5593 14.388 64.6953 14.66C64.8393 14.932 65.0353 15.144 65.2833 15.296C65.5393 15.448 65.8273 15.524 66.1473 15.524ZM74.0175 17.144C73.3695 17.144 72.7775 16.996 72.2415 16.7C71.7135 16.404 71.2895 16 70.9695 15.488C70.6575 14.968 70.5015 14.38 70.5015 13.724C70.5015 13.06 70.6575 12.472 70.9695 11.96C71.2895 11.448 71.7135 11.044 72.2415 10.748C72.7775 10.452 73.3695 10.304 74.0175 10.304C74.6655 10.304 75.2535 10.452 75.7815 10.748C76.3095 11.044 76.7295 11.448 77.0415 11.96C77.3615 12.472 77.5215 13.06 77.5215 13.724C77.5215 14.38 77.3615 14.968 77.0415 15.488C76.7295 16 76.3095 16.404 75.7815 16.7C75.2535 16.996 74.6655 17.144 74.0175 17.144ZM74.0175 15.524C74.3455 15.524 74.6295 15.448 74.8695 15.296C75.1175 15.144 75.3095 14.932 75.4455 14.66C75.5895 14.388 75.6615 14.076 75.6615 13.724C75.6615 13.372 75.5895 13.064 75.4455 12.8C75.3095 12.528 75.1175 12.316 74.8695 12.164C74.6295 12.004 74.3455 11.924 74.0175 11.924C73.6895 11.924 73.4015 12.004 73.1535 12.164C72.9055 12.316 72.7095 12.528 72.5655 12.8C72.4295 13.064 72.3615 13.372 72.3615 13.724C72.3615 14.076 72.4295 14.388 72.5655 14.66C72.7095 14.932 72.9055 15.144 73.1535 15.296C73.4015 15.448 73.6895 15.524 74.0175 15.524ZM80.9339 17.144C80.4059 17.144 79.9539 17.032 79.5779 16.808C79.2099 16.576 78.9299 16.256 78.7379 15.848C78.5459 15.44 78.4499 14.964 78.4499 14.42V10.448H80.2499V14.276C80.2499 14.524 80.2979 14.744 80.3939 14.936C80.4979 15.12 80.6419 15.264 80.8259 15.368C81.0099 15.472 81.2179 15.524 81.4499 15.524C81.6899 15.524 81.8979 15.472 82.0739 15.368C82.2579 15.264 82.3979 15.12 82.4939 14.936C82.5979 14.744 82.6499 14.524 82.6499 14.276V10.448H84.4499V17H82.7699V15.704L82.8659 15.992C82.7139 16.384 82.4659 16.676 82.1219 16.868C81.7859 17.052 81.3899 17.144 80.9339 17.144ZM85.7655 17V10.448H87.4455V11.744L87.3495 11.456C87.5015 11.064 87.7455 10.776 88.0815 10.592C88.4255 10.4 88.8255 10.304 89.2815 10.304C89.7775 10.304 90.2095 10.408 90.5775 10.616C90.9535 10.824 91.2455 11.116 91.4535 11.492C91.6615 11.86 91.7655 12.292 91.7655 12.788V17H89.9655V13.172C89.9655 12.916 89.9135 12.696 89.8095 12.512C89.7135 12.328 89.5735 12.184 89.3895 12.08C89.2135 11.976 89.0055 11.924 88.7655 11.924C88.5335 11.924 88.3255 11.976 88.1415 12.08C87.9575 12.184 87.8135 12.328 87.7095 12.512C87.6135 12.696 87.5655 12.916 87.5655 13.172V17H85.7655ZM96.1651 17.144C95.5091 17.144 94.9171 16.996 94.3891 16.7C93.8691 16.396 93.4531 15.984 93.1411 15.464C92.8371 14.944 92.6851 14.36 92.6851 13.712C92.6851 13.064 92.8371 12.484 93.1411 11.972C93.4451 11.452 93.8611 11.044 94.3891 10.748C94.9171 10.452 95.5091 10.304 96.1651 10.304C96.6531 10.304 97.1051 10.388 97.5211 10.556C97.9371 10.724 98.2931 10.96 98.5891 11.264C98.8851 11.56 99.0971 11.912 99.2251 12.32L97.6651 12.992C97.5531 12.664 97.3611 12.404 97.0891 12.212C96.8251 12.02 96.5171 11.924 96.1651 11.924C95.8531 11.924 95.5731 12 95.3251 12.152C95.0851 12.304 94.8931 12.516 94.7491 12.788C94.6131 13.06 94.5451 13.372 94.5451 13.724C94.5451 14.076 94.6131 14.388 94.7491 14.66C94.8931 14.932 95.0851 15.144 95.3251 15.296C95.5731 15.448 95.8531 15.524 96.1651 15.524C96.5251 15.524 96.8371 15.428 97.1011 15.236C97.3651 15.044 97.5531 14.784 97.6651 14.456L99.2251 15.14C99.1051 15.524 98.8971 15.868 98.6011 16.172C98.3051 16.476 97.9491 16.716 97.5331 16.892C97.1171 17.06 96.6611 17.144 96.1651 17.144ZM103.441 17.144C102.745 17.144 102.141 16.992 101.629 16.688C101.117 16.376 100.721 15.96 100.441 15.44C100.161 14.92 100.021 14.344 100.021 13.712C100.021 13.056 100.165 12.472 100.453 11.96C100.749 11.448 101.145 11.044 101.641 10.748C102.137 10.452 102.697 10.304 103.321 10.304C103.841 10.304 104.301 10.388 104.701 10.556C105.101 10.716 105.437 10.944 105.709 11.24C105.989 11.536 106.201 11.88 106.345 12.272C106.489 12.656 106.561 13.076 106.561 13.532C106.561 13.66 106.553 13.788 106.537 13.916C106.529 14.036 106.509 14.14 106.477 14.228H101.569V12.908H105.457L104.605 13.532C104.685 13.188 104.681 12.884 104.593 12.62C104.505 12.348 104.349 12.136 104.125 11.984C103.909 11.824 103.641 11.744 103.321 11.744C103.009 11.744 102.741 11.82 102.517 11.972C102.293 12.124 102.125 12.348 102.013 12.644C101.901 12.94 101.857 13.3 101.881 13.724C101.849 14.092 101.893 14.416 102.013 14.696C102.133 14.976 102.317 15.196 102.565 15.356C102.813 15.508 103.113 15.584 103.465 15.584C103.785 15.584 104.057 15.52 104.281 15.392C104.513 15.264 104.693 15.088 104.821 14.864L106.261 15.548C106.133 15.868 105.929 16.148 105.649 16.388C105.377 16.628 105.053 16.816 104.677 16.952C104.301 17.08 103.889 17.144 103.441 17.144ZM107.621 17V10.448H109.301V12.02L109.181 11.792C109.325 11.24 109.561 10.868 109.889 10.676C110.225 10.476 110.621 10.376 111.077 10.376H111.461V11.936H110.897C110.457 11.936 110.101 12.072 109.829 12.344C109.557 12.608 109.421 12.984 109.421 13.472V17H107.621Z" fill="#219EBC"/>
</svg>
